<svg width="332" height="272" viewBox="0 0 332 272" fill="none" xmlns="http://www.w3.org/2000/svg">
<path d="M331.5 204.5C331.5 219.5 326.167 232 315.5 242C305.167 251.667 290.667 259 272 264C253.667 269 232.667 271.5 209 271.5C182 271.5 155.833 268.333 130.5 262C105.5 255.333 82.6667 246.833 62 236.5C41.3333 226.167 24.5 215.167 11.5 203.5V266.5H2.05636e-06V179L3 178C18 195.333 36.8333 210.167 59.5 222.5C82.1667 234.5 106.5 243.833 132.5 250.5C158.833 256.833 184.5 260 209.5 260C230.167 260 248.833 258.167 265.5 254.5C282.167 250.5 295.333 244.333 305 236C314.667 227.667 319.5 217.167 319.5 204.5C319.5 191.5 314.167 181.167 303.5 173.5C293.167 165.833 276.5 159.833 253.5 155.5C230.5 150.833 200.167 147.167 162.5 144.5C121.5 141.5 89.1667 137 65.5 131C42.1667 125 25.5 117.333 15.5 108C5.5 98.3333 0.500003 86.8333 0.500003 73.5C0.500003 49.8333 11.8333 31.8333 34.5 19.5C57.1667 6.83332 88.8333 0.499991 129.5 0.499991C158.167 0.499991 183.167 3.83332 204.5 10.5C226.167 16.8333 245 25.1667 261 35.5C277 45.8333 290.667 56.8333 302 68.5V5.99998H314V93L311 94C289.667 69 264.333 49.1667 235 34.5C206 19.8333 170.5 12.5 128.5 12.5C93.8333 12.5 65.8333 17.5 44.5 27.5C23.5 37.5 13 52.8333 13 73.5C13 84.8333 17.6667 94.3333 27 102C36.3333 109.667 52 115.833 74 120.5C96 125.167 125.667 129 163 132C203 135 235.333 139.167 260 144.5C285 149.833 303.167 157.167 314.5 166.5C325.833 175.833 331.5 188.5 331.5 204.5Z" fill="white"/>
</svg>
